<svg width="167" height="126" xmlns="http://www.w3.org/2000/svg">

 <metadata id="imagebot_5">image/svg+xml</metadata>
 <g id="imagebot_2" label="Layer 1">
  <path transform="translate(-20 -20) matrix(1 0 0 1 -420.465 -512.595)" label="Layer 1" fill="#19aeff" d="M494.36667,640.23842C491.46976,638.75656 490.39541,635.67295 491.86862,633.06845C494.40252,628.58872 501.67531,628.58872 504.20922,633.06845C505.10389,634.65016 505.15588,635.3081 504.52566,637.07282C503.69429,639.40072 500.78626,641.29235 498.03892,641.29235C497.15237,641.29235 495.49986,640.81808 494.36667,640.23842zM521.50048,640.76626C519.24179,640.00065 517.38168,637.55297 517.38168,635.34641C517.38168,629.39808 527.01948,627.52049 530.06356,632.87579C532.74271,637.5891 527.19861,642.69773 521.50048,640.76626zM546.59817,640.26938C543.08545,638.42483 542.2382,635.72584 544.182,632.5724C547.3139,627.49149 556.71197,629.62044 556.71197,635.41082C556.71197,639.7912 550.95461,642.55697 546.59817,640.26938z" id="imagebot_4"/>
  <path transform="translate(-20 -20) matrix(1 0 0 1 -420.465 -512.595)" label="Layer 1" fill="#3f007f" d="M481.59572,658.00781C479.6771,656.74253 479.57805,655.03083 481.33803,653.55433L482.96067,652.19306L523.7887,652.19306C568.67835,652.19306 567.48269,652.10566 567.48269,655.38534C567.48269,658.82396 569.33386,658.68394 523.87274,658.68394C491.84798,658.68394 482.39166,658.53271 481.59572,658.00781zM441.59353,638.62705C440.5313,638.10801 440.4652,635.02591 440.4652,586.01323C440.4652,546.24141 440.64785,533.79752 441.23891,533.30167C442.36278,532.35882 605.56015,532.35882 606.68403,533.30167C607.27501,533.79747 607.45774,546.16865 607.45774,585.68583C607.45774,635.11897 607.40524,637.46072 606.27864,638.31609C605.25037,639.09677 603.11872,639.21129 589.61484,639.21129C575.43235,639.21129 574.0404,639.12809 573.06307,638.2221C571.62829,636.89205 571.7176,635.11759 573.28552,633.80221C574.48687,632.79437 575.43471,632.7204 587.14784,632.7204L599.72063,632.7204L599.72063,585.66148L599.72063,538.60256L523.63909,538.60256L447.55755,538.60256L447.55755,585.66148L447.55755,632.7204L460.40592,632.7204L473.25431,632.7204L474.59062,634.14561C476.26113,635.92725 476.2709,636.75909 474.63742,638.12947C473.41911,639.15155 472.50238,639.21038 458.03488,639.19483C448.8384,639.18483 442.27117,638.95817 441.59353,638.62705zM516.45803,598.42547C515.63886,596.91718 515.476,597.41325 524.68852,573.35584L529.5044,560.77975L531.74364,560.77975C536.47219,560.77975 536.10416,562.36469 524.71023,591.07055L521.38243,599.45461L519.2916,599.62382C517.58033,599.76231 517.06593,599.54472 516.45803,598.42547zM488.96123,590.60382C482.12271,587.69517 476.06466,584.92702 475.49889,584.45239C474.80796,583.87274 474.60786,583.12939 474.88941,582.18828C475.2442,581.00235 477.39382,579.91171 488.88486,575.08745C502.44249,569.39557 504.45064,568.88432 505.09762,570.95985C505.80856,573.24059 504.49216,574.07196 493.38943,578.35419C487.31783,580.69596 482.57324,582.78117 482.8459,582.98798C483.11857,583.1948 488.17397,585.23984 494.08012,587.5325C500.79218,590.13801 504.92635,592.04669 505.10599,592.62298C505.61036,594.24103 504.45433,595.94056 502.86639,595.9155C502.05708,595.9027 495.79975,593.51247 488.96123,590.60382zM543.11081,595.28963C542.10086,594.44235 542.11916,592.43063 543.14301,591.74563C543.58628,591.44908 548.59123,589.42952 554.26511,587.25772C559.93898,585.08593 564.78939,583.16471 565.04378,582.98834C565.29818,582.81199 560.80098,580.86543 555.05002,578.66268C549.29905,576.45993 544.07224,574.28618 543.43487,573.83214C542.01996,572.82419 542.21995,570.58449 543.79854,569.75927C544.73224,569.27119 547.33217,570.18792 558.21721,574.84334C571.53621,580.53973 573.96357,582.0365 572.77413,583.81957C572.11248,584.81143 546.54111,595.91466 544.88386,595.92966C544.3342,595.93466 543.53632,595.64663 543.11078,595.28963L543.11081,595.28963z" id="imagebot_3"/>
  <title>Layer 1</title>
 </g>
</svg>